<?xml version="1.0" standalone="no"?>
<!DOCTYPE svg PUBLIC "-//W3C//DTD SVG 20010904//EN" "http://www.w3.org/TR/2001/REC-SVG-20010904/DTD/svg10.dtd">
<svg xmlns="http://www.w3.org/2000/svg" version="1.0" width="1024.000000pt" height="1024.000000pt" viewBox="0 0 1024.000000 1024.000000" preserveAspectRatio="xMidYMid meet">
<metadata>
Created by potrace 1.16, written by Peter Selinger 2001-2019
<meta name="Producer" content="Online-Convert"/></metadata>
<g transform="translate(0.000000,1024.000000) scale(0.100000,-0.100000)" fill="#000000" stroke="none">
<path d="M0 5120 l0 -5120 5120 0 5120 0 0 5120 0 5120 -5120 0 -5120 0 0 -5120z m3410 2015 l0 -215 -212 2 -213 3 -3 213 -2 212 215 0 215 0 0 -215z m2535 205 c311 -36 613 -151 835 -318 125 -94 276 -249 343 -350 294 -442 253 -1042 -101 -1459 l-44 -53 63 -68 c109 -115 176 -231 234 -405 46 -137 65 -255 65 -402 0 -325 -111 -610 -344 -879 -225 -261 -590 -436 -991 -475 -135 -13 -2881 -26 -2888 -14 -3 5 51 59 121 119 70 60 253 219 407 354 154 135 390 337 525 450 259 218 739 636 985 860 l148 135 90 -95 89 -94 -88 -86 c-128 -123 -1081 -966 -1320 -1166 l-49 -42 970 -4 c534 -2 1003 0 1044 4 233 24 477 147 643 326 146 157 232 361 245 582 16 299 -126 580 -381 752 -100 68 -136 100 -136 122 0 13 37 55 101 116 280 262 330 324 375 465 52 158 42 418 -22 575 -35 87 -120 214 -191 285 -123 123 -401 267 -611 316 -79 19 -138 22 -612 29 -289 5 -842 9 -1230 9 l-704 0 2 168 c2 93 5 187 9 211 l5 42 1162 0 c730 0 1194 -4 1251 -10z m-2545 -2229 c0 -913 3 -1666 6 -1674 4 -11 -23 -37 -84 -86 -50 -39 -143 -116 -208 -171 -65 -55 -121 -100 -125 -100 -3 0 -9 17 -13 38 -8 49 -8 3580 0 3621 l7 31 208 0 209 0 0 -1659z m540 252 c0 -775 -4 -1412 -8 -1418 -8 -11 -189 -178 -304 -278 -63 -56 -77 -65 -81 -50 -8 28 -21 3129 -13 3142 5 7 71 11 207 11 l199 0 0 -1407z m2308 1053 c147 -93 242 -212 298 -376 23 -66 25 -249 5 -345 l-13 -60 -273 -275 -272 -275 -6 -215 c-3 -118 -3 -381 0 -585 3 -203 3 -413 -1 -465 l-8 -95 -133 0 c-73 0 -136 3 -139 6 -3 3 -6 206 -6 451 l-1 446 -411 428 c-226 236 -557 578 -735 760 -177 183 -323 335 -323 338 0 3 108 6 239 6 l239 0 491 -497 c476 -481 491 -495 492 -462 1 19 5 165 8 324 l6 290 145 0 145 0 -3 -180 -4 -180 101 100 101 100 0 145 c0 183 12 640 17 640 2 0 20 -11 41 -24z m-1834 -726 l138 -145 -7 -495 c-4 -272 -10 -551 -14 -620 l-6 -125 -128 -103 -127 -103 -10 26 c-6 17 -10 333 -10 871 0 679 3 845 13 842 7 -2 75 -68 151 -148z"/>
</g>
</svg>
